<?xml version="1.0" encoding="UTF-8"?>
<svg xmlns="http://www.w3.org/2000/svg" xmlns:xlink="http://www.w3.org/1999/xlink" viewBox="0 0 48 48" width="48px" height="48px">
<g id="surface1212544">
<path style=" stroke:none;fill-rule:nonzero;fill:rgb(44.705883%,49.019608%,52.549022%);fill-opacity:1;" d="M 32 28.5 L 32 39 L 12 39 L 12 28.5 C 12 28.222656 11.777344 28 11.5 28 L 9.5 28 C 9.222656 28 9 28.222656 9 28.5 L 9 41 C 9 41.550781 9.449219 42 10 42 L 34 42 C 34.550781 42 35 41.550781 35 41 L 35 28.5 C 35 28.222656 34.777344 28 34.5 28 L 32.5 28 C 32.222656 28 32 28.222656 32 28.5 Z M 32 28.5 "/>
<path style=" stroke:none;fill-rule:nonzero;fill:rgb(44.705883%,49.019608%,52.549022%);fill-opacity:1;" d="M 15 34 L 29 34 L 29 37 L 15 37 Z M 15 34 "/>
<path style=" stroke:none;fill-rule:nonzero;fill:rgb(53.725493%,46.666667%,41.960785%);fill-opacity:1;" d="M 15.082031 28.261719 L 29 29.757812 L 28.679688 32.742188 L 14.757812 31.242188 Z M 15.082031 28.261719 "/>
<path style=" stroke:none;fill-rule:nonzero;fill:rgb(89.019608%,37.64706%,0.392157%);fill-opacity:1;" d="M 36.871094 6 L 39.003906 19.835938 L 36.039062 20.292969 L 33.90625 6.457031 Z M 36.871094 6 "/>
<path style=" stroke:none;fill-rule:nonzero;fill:rgb(80.000001%,40.000001%,10.980392%);fill-opacity:1;" d="M 28.46875 8.238281 L 35.300781 20.453125 L 32.683594 21.921875 L 25.851562 9.699219 Z M 28.46875 8.238281 "/>
<path style=" stroke:none;fill-rule:nonzero;fill:rgb(71.372551%,42.352942%,21.176471%);fill-opacity:1;" d="M 20.5 14.550781 L 32 22.53125 L 30.289062 24.996094 L 18.789062 17.015625 Z M 20.5 14.550781 "/>
<path style=" stroke:none;fill-rule:nonzero;fill:rgb(62.352943%,44.313726%,31.764707%);fill-opacity:1;" d="M 16.898438 21.21875 L 30.070312 25.957031 L 29.054688 28.78125 L 15.882812 24.042969 Z M 16.898438 21.21875 "/>
</g>
</svg>
